<svg width="136" height="32" fill="none" xmlns="http://www.w3.org/2000/svg"><g clip-path="url(#clip0_802_418)" fill="#282938"><path d="M32.934 7.806h3.119v15.162h-3.12V7.806zm4.863 9.968c0-1.091.321-2.157.922-3.064a5.47 5.47 0 012.455-2.029c1-.416 2.098-.523 3.158-.308a5.444 5.444 0 012.794 1.517 5.524 5.524 0 011.486 2.828 5.556 5.556 0 01-.323 3.186 5.497 5.497 0 01-2.024 2.465c-.902.602-1.96.92-3.04.913a5.344 5.344 0 01-2.091-.408 5.384 5.384 0 01-1.77-1.194 5.478 5.478 0 01-1.566-3.906zm7.819 0a2.408 2.408 0 00-.43-1.312 2.373 2.373 0 00-1.076-.853 2.35 2.35 0 00-2.562.558 2.413 2.413 0 00-.486 2.599 2.373 2.373 0 002.183 1.463 2.291 2.291 0 001.705-.71 2.33 2.33 0 00.645-1.745h.02zm15.376-5.194v9.874c0 3.483-2.703 4.963-5.437 4.963a5.158 5.158 0 01-2.793-.559 5.218 5.218 0 01-2.083-1.96l2.63-1.531c.214.433.553.791.973 1.026.42.234.9.334 1.377.285a2.062 2.062 0 001.684-.558 2.098 2.098 0 00.645-1.666v-.955a3.673 3.673 0 01-1.345 1.03c-.522.233-1.09.34-1.66.313-1.378 0-2.7-.553-3.675-1.537a5.27 5.27 0 01-1.523-3.71 5.27 5.27 0 011.523-3.709 5.174 5.174 0 013.675-1.537 3.647 3.647 0 013.005 1.343v-1.049l3.005-.063zm-3.004 4.984a2.536 2.536 0 00-.37-1.426 2.503 2.503 0 00-1.096-.974 2.474 2.474 0 00-2.753.477 2.54 2.54 0 00-.59 2.756c.186.466.505.866.917 1.148a2.48 2.48 0 001.397.433 2.31 2.31 0 001.779-.648 2.354 2.354 0 00.716-1.766zm4.762.21c0-1.09.32-2.156.92-3.062a5.469 5.469 0 012.452-2.028 5.41 5.41 0 013.155-.312 5.443 5.443 0 012.795 1.51 5.525 5.525 0 011.49 2.824c.21 1.069.1 2.177-.314 3.183a5.497 5.497 0 01-2.015 2.47 5.422 5.422 0 01-3.035.923 5.354 5.354 0 01-2.095-.405 5.392 5.392 0 01-1.776-1.193 5.45 5.45 0 01-1.18-1.795 5.488 5.488 0 01-.397-2.115zm7.819 0a2.408 2.408 0 00-.43-1.313 2.375 2.375 0 00-1.079-.853 2.35 2.35 0 00-2.563.563 2.414 2.414 0 00-.48 2.602c.183.434.489.803.878 1.062.39.259.847.396 1.314.394a2.291 2.291 0 001.705-.71 2.33 2.33 0 00.644-1.745h.01zM75.09 9.8c0-.37.108-.73.312-1.038a1.834 1.834 0 012.847-.283 1.874 1.874 0 01.401 2.036 1.87 1.87 0 01-.681.838 1.84 1.84 0 01-1.029.315 1.863 1.863 0 01-1.302-.554A1.898 1.898 0 0175.09 9.8zm.301 2.78h3.12v10.388h-3.12V12.58zm16.469 5.193a5.28 5.28 0 01-1.345 3.796 5.198 5.198 0 01-1.638 1.22 5.157 5.157 0 01-1.977.493 3.836 3.836 0 01-1.703-.275 3.869 3.869 0 01-1.416-.995v5.131h-3.119V12.58h3.119v.976a3.828 3.828 0 013.119-1.26A5.163 5.163 0 0190.503 14a5.26 5.26 0 011.356 3.775zm-3.12 0a2.496 2.496 0 00-.444-1.359 2.46 2.46 0 00-1.115-.884 2.435 2.435 0 00-2.654.581 2.496 2.496 0 00-.498 2.694c.19.449.505.831.909 1.1.403.267.876.41 1.359.408a2.33 2.33 0 001.785-.718 2.395 2.395 0 00.658-1.822zm12.611 2.079c0 2.392-2.08 3.41-4.283 3.41a4.48 4.48 0 01-2.592-.552 4.538 4.538 0 01-1.837-1.924l2.682-1.532c.106.374.337.7.653.924.316.223.698.33 1.083.303.738 0 1.113-.23 1.113-.65 0-1.144-5.064-.535-5.064-4.134 0-2.267 1.893-3.4 4.035-3.4a4.48 4.48 0 012.34.54c.717.39 1.317.968 1.735 1.674l-2.683 1.427a1.51 1.51 0 00-1.382-.913c-.54 0-.863.21-.863.577 0 1.196 5.063.41 5.063 4.25zm11.301-7.272v10.388h-3.119v-.976a3.542 3.542 0 01-2.932 1.29c-2.079 0-3.857-1.5-3.857-4.301v-6.4h3.119v5.927a1.74 1.74 0 00.467 1.363 1.705 1.705 0 001.331.526c1.124 0 1.913-.671 1.913-2.098V12.58h3.078zm17.674 4.008v6.38h-3.119V16.86c0-1.05-.489-1.7-1.477-1.7-.988 0-1.611.724-1.611 1.952v5.855H121V16.86c0-1.05-.488-1.7-1.477-1.7-.987 0-1.611.724-1.611 1.952v5.855h-3.119V12.58h3.119v.955a3.187 3.187 0 011.228-.972 3.157 3.157 0 011.538-.266 3.024 3.024 0 011.525.322c.471.24.874.598 1.167 1.042a3.39 3.39 0 011.318-1.07 3.363 3.363 0 011.666-.294c2.433 0 3.972 1.7 3.972 4.291zM14.355 5.078V.618H.424v30.64h13.931v-4.46a10.71 10.71 0 01-7.609-3.181 10.91 10.91 0 01-3.151-7.68A10.91 10.91 0 016.746 8.26a10.71 10.71 0 017.609-3.181z"/><path d="M14.354 5.078v21.72a10.71 10.71 0 007.608-3.181 10.91 10.91 0 003.152-7.68 10.91 10.91 0 00-3.152-7.679 10.71 10.71 0 00-7.608-3.18zm118.592 7.44a2.298 2.298 0 002.287-2.309 2.298 2.298 0 00-2.287-2.308 2.298 2.298 0 00-2.288 2.308 2.298 2.298 0 002.288 2.309z"/></g><defs><clipPath id="clip0_802_418"><path fill="#fff" d="M0 0h136v32H0z"/></clipPath></defs></svg>