<svg width="153" height="32" fill="none" xmlns="http://www.w3.org/2000/svg"><g clip-path="url(#clip0_802_434)" fill="#282938"><path d="M49.372 25.492a3.436 3.436 0 01-2.164-.621 2.02 2.02 0 01-.817-1.697V11.168a.335.335 0 01.225-.36.338.338 0 01.151-.015h2.177c.247 0 .363.13.363.375v11.074c0 .492.22.738.674.738.193.008.385-.014.57-.065.26 0 .402.078.415.31l.195 1.62a.337.337 0 01-.311.401c-.477.158-.976.24-1.478.246zm12.249-1.385a6.107 6.107 0 01-7.776 0 5.179 5.179 0 010-7.292 6.134 6.134 0 017.776 0 5.256 5.256 0 010 7.279v.013zm-5.728-1.71a2.762 2.762 0 003.706 0 2.9 2.9 0 000-3.808 2.761 2.761 0 00-3.706 0 2.9 2.9 0 000 3.808zm19.182-6.644c.246 0 .363.13.363.375v9.286a4.221 4.221 0 01-1.439 3.329 5.445 5.445 0 01-3.772 1.295 6.068 6.068 0 01-3.512-.971 3.887 3.887 0 01-1.698-2.59c0-.26 0-.376.35-.376h2.178a.48.48 0 01.427.298c.141.393.423.72.79.92.45.23.948.346 1.453.336a2.292 2.292 0 001.671-.596 2.2 2.2 0 00.61-1.619v-.816c-.78.573-1.729.87-2.696.842a5.03 5.03 0 01-3.681-1.412 5.179 5.179 0 010-7.2 5.068 5.068 0 013.68-1.4c.996-.025 1.97.29 2.761.895v-.208a.336.336 0 01.363-.375l2.152-.013zm-5.029 7.408a2.282 2.282 0 001.776-.764 3.171 3.171 0 000-3.886 2.267 2.267 0 00-1.763-.75 2.335 2.335 0 00-1.802.763 2.744 2.744 0 00-.7 1.943 2.796 2.796 0 00.687 1.93 2.347 2.347 0 001.802.764zm16.574.945a6.134 6.134 0 01-7.776 0 5.27 5.27 0 010-7.292 6.146 6.146 0 017.777 0 5.256 5.256 0 010 7.279v.013zm-5.741-1.71a2.593 2.593 0 001.866.713 2.594 2.594 0 001.854-.713 2.938 2.938 0 000-3.807 2.594 2.594 0 00-1.854-.713 2.596 2.596 0 00-1.866.713 2.939 2.939 0 000 3.807zm11.885-8.845a1.88 1.88 0 01-2.475 0 1.567 1.567 0 010-2.28 1.918 1.918 0 012.475 0 1.566 1.566 0 010 2.28zm.273 11.941a3.487 3.487 0 01-2.165-.621 2.045 2.045 0 01-.804-1.697V16.13a.338.338 0 01.376-.376h2.178c.246 0 .363.13.363.376v6.113c0 .492.22.738.66.738.197.007.394-.015.584-.065.259 0 .402.078.415.31l.194 1.62a.337.337 0 01-.311.401 4.918 4.918 0 01-1.49.247zm9.812-10.05a5.087 5.087 0 013.707 1.399 5.307 5.307 0 010 7.24 5.03 5.03 0 01-3.707 1.411 4.46 4.46 0 01-2.708-.842v4.676c0 .246-.13.363-.376.363h-2.177a.313.313 0 01-.355-.214.31.31 0 01-.008-.15v-10.62a.673.673 0 00-.765-.763h-.428c-.285 0-.427-.104-.427-.311v-1.529a.414.414 0 01.298-.427 3.894 3.894 0 011.4-.233 2.4 2.4 0 012.345 1.295 4.37 4.37 0 013.201-1.295zm-2.021 6.955a2.468 2.468 0 001.788.763 2.476 2.476 0 001.789-.763 2.794 2.794 0 00.713-1.982 2.76 2.76 0 00-.713-1.981 2.478 2.478 0 00-3.577 0 2.86 2.86 0 00-.687 1.981c-.026.723.219 1.43.687 1.982zm13.27 3.095a6.252 6.252 0 01-3.331-.803 3.168 3.168 0 01-1.014-.975 3.17 3.17 0 01-.489-1.317c0-.26.091-.389.376-.389h1.905a.49.49 0 01.427.285c.273.7.985 1.05 2.126 1.05.398.017.794-.063 1.154-.234a.76.76 0 00.441-.635c0-.336-.208-.57-.623-.725a7.009 7.009 0 00-1.516-.324 14.47 14.47 0 01-1.815-.323 2.98 2.98 0 01-1.516-.868 2.781 2.781 0 01-.595-2.129 2.787 2.787 0 011.152-1.886 5.343 5.343 0 013.136-.829 5.728 5.728 0 013.059.764 2.894 2.894 0 011.427 2.034c0 .259-.118.388-.351.388h-1.918a.405.405 0 01-.389-.233 1.297 1.297 0 00-.674-.686 2.284 2.284 0 00-1.115-.26c-.38-.02-.759.056-1.101.22a.645.645 0 00-.414.596.826.826 0 00.621.765 7.044 7.044 0 001.542.388c.607.08 1.208.192 1.802.337a2.98 2.98 0 011.517.868 2.446 2.446 0 01.635 1.774 2.593 2.593 0 01-1.206 2.254 5.665 5.665 0 01-3.253.893zm18.159-.647a.348.348 0 01-.065.263.34.34 0 01-.233.138 5.006 5.006 0 01-1.464.246 2.88 2.88 0 01-2.593-1.126 4.692 4.692 0 01-3.304 1.126 4.021 4.021 0 01-3.034-1.178 4.254 4.254 0 01-1.153-3.122V16.13c0-.247.116-.376.363-.376h2.178c.245 0 .362.13.362.376v4.675a2.294 2.294 0 00.558 1.593 1.946 1.946 0 001.49.609 2.155 2.155 0 001.555-.57 2.062 2.062 0 00.584-1.541V16.13c0-.247.116-.376.362-.376h2.204c.246 0 .362.13.362.376v6.1c0 .505.221.75.649.75.2.009.402-.013.596-.064a.339.339 0 01.428.311l.155 1.619zm20.594 0a.327.327 0 01-.298.402 5.04 5.04 0 01-1.491.246 3.467 3.467 0 01-2.165-.622 2.012 2.012 0 01-.867-1.697v-3.043a2.295 2.295 0 00-.546-1.593 1.836 1.836 0 00-1.451-.609 1.617 1.617 0 00-1.295.57 2.297 2.297 0 00-.493 1.528v4.78c0 .245-.117.375-.363.375h-2.191a.34.34 0 01-.279-.096.336.336 0 01-.097-.28v-4.675a2.393 2.393 0 00-.505-1.593 1.685 1.685 0 00-1.296-.609 1.882 1.882 0 00-1.425.57c-.371.42-.562.969-.532 1.528v4.78a.336.336 0 01-.376.375h-2.112c-.247 0-.364-.13-.364-.376v-6.1a.677.677 0 00-.19-.574.672.672 0 00-.574-.19h-.428c-.285 0-.428-.104-.428-.31v-1.529a.415.415 0 01.299-.427 3.882 3.882 0 011.399-.234 2.44 2.44 0 012.308 1.192 4.37 4.37 0 013.292-1.192 3.718 3.718 0 013.071 1.373 4.28 4.28 0 013.396-1.373 4.096 4.096 0 013.071 1.179 4.232 4.232 0 011.154 3.121v2.5c0 .492.22.738.635.738.201.01.402-.012.596-.065.268 0 .41.104.428.311l.117 1.62zM.873 14.07a17.73 17.73 0 016.291-9.688 17.751 17.751 0 0121.855 0 17.73 17.73 0 016.29 9.688h-1.554a12.565 12.565 0 00-7.35 2.24c-.124.09-.253.173-.388.246h-.181a3.707 3.707 0 01-.39-.246 13.187 13.187 0 00-14.71 0c-.124.09-.254.173-.389.246h-.181a3.714 3.714 0 01-.389-.246 12.565 12.565 0 00-7.349-2.24H.873zm30.082 8.12a4.37 4.37 0 012.8-.92h2.086v-4.157h-2.086a8.273 8.273 0 00-4.964 1.58 4.72 4.72 0 01-5.6 0 8.818 8.818 0 00-10.07 0 4.72 4.72 0 01-5.599 0 8.273 8.273 0 00-5.029-1.58H.342v4.158h2.086a4.37 4.37 0 012.8.92 8.792 8.792 0 0010.058 0 4.39 4.39 0 012.8-.92 4.344 4.344 0 012.799.92 8.818 8.818 0 0010.07 0zm0 7.434a4.37 4.37 0 012.8-.92h2.086v-4.157h-2.086a8.273 8.273 0 00-4.964 1.58 4.72 4.72 0 01-5.6 0 8.818 8.818 0 00-10.07 0 4.72 4.72 0 01-5.599 0 8.273 8.273 0 00-5.029-1.58H.342v4.158h2.086a4.37 4.37 0 012.8.92 8.791 8.791 0 0010.058 0 4.39 4.39 0 012.8-.92 4.344 4.344 0 012.799.92 8.818 8.818 0 0010.07 0z"/></g><defs><clipPath id="clip0_802_434"><path fill="#fff" d="M0 0h153v32H0z"/></clipPath></defs></svg>