<svg width="24" height="24" fill="none" xmlns="http://www.w3.org/2000/svg"><g clip-path="url(#clip0_533_2339)"><path d="M15.518 7.031c0 .775.63 1.407 1.406 1.407h4.18a9.064 9.064 0 00-.672-2.813h-3.508c-.775 0-1.406.631-1.406 1.406z" fill="#232536"/><path d="M6.377 24h8.438a.703.703 0 00.703-.703v-3.61h1.406v-4.57L9.893 9.844H3.564a.703.703 0 00-.703.703 9.154 9.154 0 002.813 6.596v6.154c0 .389.314.703.703.703z" fill="#FFD050"/><path d="M12.002 0a.703.703 0 00-.703.703v.703H8.357A2.106 2.106 0 006.377 0c-1.163 0-2.11.946-2.11 2.11 0 1.163.947 2.109 2.11 2.109.915 0 1.689-.59 1.98-1.407h2.942v2.813h-7.16a2.106 2.106 0 00-1.98-1.406c-1.164 0-2.157.946-2.157 2.11 0 1.162.993 2.109 2.156 2.109.916 0 1.689-.59 1.98-1.407h7.16v2.11l6.75 5.062a.703.703 0 01.282.563v4.921h.703c1.163 0 2.11-.946 2.11-2.109v-3.515h2.156a.703.703 0 00.585-1.094l-2.13-3.125h-4.83A2.815 2.815 0 0114.11 7.03a2.815 2.815 0 012.813-2.812h2.766C18.063 1.686 15.23 0 12.002 0z" fill="#232536"/></g><defs><clipPath id="clip0_533_2339"><path fill="#fff" d="M0 0h24v24H0z"/></clipPath></defs></svg>